<svg version="1.1" id="Layer_1" xmlns="http://www.w3.org/2000/svg" xmlns:xlink="http://www.w3.org/1999/xlink" x="0px" y="0px"
	 width="100%" viewBox="0 0 1024 480" enable-background="new 0 0 1024 480" xml:space="preserve">
<path fill="#000000" opacity="1.000000" stroke="none" 
	d="
M210.849197,423.297729 
	C180.327393,415.194092 150.532486,406.199341 122.166634,393.054779 
	C91.880920,379.020599 64.441612,360.943939 43.340717,334.669800 
	C28.435656,316.110474 21.251394,294.408966 21.917183,270.595306 
	C22.495447,249.912140 30.312971,231.410034 41.158958,214.044525 
	C59.672348,184.402710 84.859589,161.272858 112.850159,141.017654 
	C158.666153,107.863159 209.544785,84.820961 263.176331,67.754990 
	C305.415100,54.314281 348.466248,44.022659 392.438599,37.949551 
	C411.099091,35.372318 429.910797,34.232132 448.711823,34.076611 
	C468.070587,33.916477 487.209930,31.179955 506.506378,30.356991 
	C524.841003,29.575043 543.161499,29.311445 561.463379,30.150436 
	C581.743530,31.080116 601.947998,33.191231 622.106018,35.665260 
	C706.450134,46.016968 786.569275,69.790833 861.294678,110.783051 
	C894.092957,128.775223 924.261169,150.203583 949.532471,178.039963 
	C964.558960,194.591812 977.234009,212.677628 984.257568,234.155960 
	C995.356384,268.096741 986.848206,298.157959 965.418213,325.368134 
	C947.234192,348.456726 923.542847,364.754272 898.068237,378.646606 
	C856.061707,401.554596 810.886475,415.888672 764.667419,427.253723 
	C724.701355,437.081238 684.198975,444.068542 643.362305,449.011597 
	C613.450806,452.632233 583.431580,455.054077 553.311218,456.460846 
	C515.995789,458.203613 478.690460,457.628021 441.384399,456.972931 
	C363.255157,455.601074 286.640808,443.619934 210.849197,423.297729 
M821.905945,104.683937 
	C711.673828,52.077648 594.940247,36.611691 474.519928,42.642166 
	C471.361969,55.818848 469.404053,57.216293 456.868042,57.383953 
	C445.043762,57.542095 433.210388,57.758686 421.404755,58.391994 
	C406.114288,59.212250 390.787933,59.942387 375.582642,61.651115 
	C343.959900,65.204788 312.763336,71.277611 281.919220,79.123932 
	C226.212585,93.294930 174.117859,115.713036 126.522675,148.062241 
	C100.554726,165.711960 77.637085,186.676865 60.572830,213.401459 
	C50.961208,228.454376 43.520485,244.490051 42.438713,262.566681 
	C40.793457,290.059143 50.227825,313.532562 69.767410,332.933014 
	C92.426849,355.431091 119.141220,371.762939 148.124649,384.736908 
	C212.065414,413.359070 279.350830,429.493439 348.522247,438.563660 
	C388.212250,443.768097 428.177979,444.862030 468.127350,445.563080 
	C491.769623,445.977966 515.427795,445.981415 539.090332,445.072418 
	C566.720154,444.011017 594.301453,442.386475 621.783752,439.490723 
	C653.555786,436.142914 685.196045,431.729980 716.578308,425.641724 
	C769.345398,415.404694 821.162109,401.927094 870.241760,379.486328 
	C897.820007,366.876709 923.667175,351.559692 945.039795,329.542389 
	C975.758301,297.897217 980.881165,258.441650 959.160950,220.058548 
	C950.800598,205.284348 939.875793,192.512924 928.275146,180.285263 
	C897.950134,148.321182 861.913757,124.343819 821.905945,104.683937 
z"/>
<path fill="#000000" opacity="1.000000" stroke="none" 
	d="
M526.301697,396.496399 
	C514.174988,401.647034 501.775330,403.964966 489.115417,405.022675 
	C481.737396,405.639160 474.409973,404.913483 467.458405,402.326843 
	C446.093872,394.377136 438.145905,368.278961 450.775116,347.613007 
	C458.549469,334.891357 469.687897,325.280487 480.984344,315.909149 
	C496.653412,302.910278 513.732727,291.828186 530.478394,280.315247 
	C534.819580,277.330566 536.229431,274.615936 534.775818,269.265656 
	C525.084045,233.592697 535.133362,202.797729 558.165100,175.025101 
	C574.228516,155.655136 594.305054,141.694290 616.037598,129.721207 
	C618.071533,128.600662 620.221497,127.620392 622.421204,126.884659 
	C628.075623,124.993439 633.258301,127.072151 635.485291,131.941528 
	C637.732788,136.855652 635.973999,142.274246 630.868835,145.203415 
	C621.169617,150.768524 611.859375,156.974365 602.934387,163.634323 
	C586.930664,175.576584 572.659119,189.425446 563.364990,207.367645 
	C555.407104,222.730133 553.323425,239.296783 556.215820,256.418457 
	C556.436584,257.725220 556.469788,259.094543 558.084595,260.070007 
	C562.713135,258.005005 566.377686,254.299698 570.128723,250.905396 
	C586.081177,236.469971 601.500732,221.527924 612.976257,203.051849 
	C616.015991,198.157837 622.251587,196.441956 627.519348,198.681610 
	C633.055115,201.035202 636.170166,206.677475 634.295105,212.584335 
	C631.982300,219.869980 628.912354,226.913971 626.211670,234.078262 
	C624.933594,237.468582 623.275818,240.740707 622.602966,245.191422 
	C628.614624,242.088516 634.243225,238.798553 640.585205,243.077881 
	C646.626099,247.153961 646.412415,253.413681 646.383789,260.069550 
	C650.543152,258.825378 653.118591,256.592133 654.874695,253.183090 
	C656.703796,249.632263 658.493286,246.032303 660.673645,242.698135 
	C663.662415,238.127838 667.961365,235.936722 673.522034,237.167358 
	C675.047241,237.504898 676.419739,237.372162 677.925415,237.105469 
	C686.272461,235.627014 692.282104,240.586792 692.452759,249.152115 
	C692.515198,252.289093 692.136353,255.434860 691.902405,259.575256 
	C697.241455,254.320908 700.638794,248.530472 704.441101,243.060852 
	C708.984619,236.525253 716.298645,235.130356 722.203369,239.502121 
	C725.731567,242.114349 726.284424,246.190918 727.570984,250.232849 
	C731.662109,249.012253 734.255432,246.718369 735.809875,242.899078 
	C738.729736,235.724640 744.873718,232.810959 751.406189,235.228302 
	C757.407166,237.448959 760.145508,243.893723 758.053406,250.968140 
	C756.794617,255.224777 755.208374,259.402618 754.740051,264.149872 
	C758.103516,263.388611 759.164978,261.442657 759.981140,258.590881 
	C762.886536,248.439194 767.806030,239.744049 778.865295,236.548401 
	C784.650208,234.876801 791.736694,237.217773 794.935120,241.930038 
	C798.451050,247.110016 798.437439,252.638824 795.165833,257.919678 
	C793.016907,261.388458 790.400452,264.567719 787.717285,268.256134 
	C791.622009,269.162689 794.387512,267.470154 797.191284,266.281647 
	C804.342163,263.250519 809.926819,257.815216 816.317383,253.611740 
	C818.403442,252.239594 820.383728,250.625107 822.629700,249.595520 
	C826.641052,247.756668 830.478638,248.372208 833.644836,251.575043 
	C836.674622,254.639862 837.357239,258.460052 835.492676,262.178528 
	C826.822815,279.468506 799.969788,297.237915 778.376892,291.339600 
	C775.784668,290.631500 773.024170,290.050720 771.035400,288.335175 
	C767.611511,285.381653 764.765747,286.138062 761.216248,288.199768 
	C756.165955,291.133179 750.743958,293.244598 744.585693,292.443817 
	C737.263550,291.491669 732.016479,287.862610 729.913086,280.749664 
	C728.837097,277.111084 726.987000,275.914886 723.476013,276.308014 
	C722.173462,276.453857 720.553955,276.616852 719.538086,276.007141 
	C713.318237,272.274139 709.336487,275.460052 705.374756,279.943726 
	C703.532410,282.028900 701.087280,283.656677 698.718750,285.187622 
	C691.815491,289.649689 684.539368,291.090057 677.072083,286.683899 
	C674.558777,285.200897 672.814392,285.736511 670.826782,287.382751 
	C664.577637,292.558685 658.031555,293.533905 651.257629,288.391815 
	C649.648560,287.170441 648.221008,287.359070 646.668640,288.309692 
	C645.958557,288.744507 645.228821,289.147980 644.500793,289.552582 
	C632.514954,296.213531 624.223389,294.028534 617.167480,282.113617 
	C613.843079,284.515808 611.837219,287.953491 609.671387,291.206970 
	C605.595764,297.329498 600.249084,299.560852 594.438599,297.385254 
	C588.534119,295.174438 585.316162,289.358673 586.272766,282.454987 
	C586.751892,278.997314 587.281860,275.540222 587.974854,272.120544 
	C588.628052,268.897339 589.525208,265.723602 590.606689,261.348328 
	C581.637695,268.675995 573.540771,275.255798 565.490417,281.892059 
	C563.361206,283.647247 564.377991,285.804932 564.993225,287.881287 
	C568.307007,299.065063 570.862549,310.319641 571.526367,322.089172 
	C573.511108,357.276886 559.880676,380.690308 528.004761,395.698029 
	C527.552979,395.910736 527.100464,396.121643 526.301697,396.496399 
M484.177948,344.672913 
	C479.135071,349.540558 474.227631,354.574097 470.856628,360.766510 
	C465.536987,370.538544 469.766724,379.734070 480.691071,381.065521 
	C497.164093,383.073303 512.251648,378.347168 526.369507,370.003052 
	C537.043518,363.694305 544.432495,354.934326 547.311279,342.685394 
	C549.083008,335.147186 549.291260,327.469727 548.432373,319.860443 
	C547.622559,312.685913 546.470215,305.480011 543.083557,298.345306 
	C522.482727,312.759979 503.047180,327.781433 484.177948,344.672913 
z"/>
<path fill="#000000" opacity="1.000000" stroke="none" 
	d="
M373.597595,248.899109 
	C386.797638,248.044632 395.275970,256.026062 393.166656,266.904663 
	C392.140350,272.197662 388.332275,275.722168 383.713684,280.004578 
	C394.038239,277.825958 402.774902,274.514008 409.705292,268.604309 
	C414.599670,264.430695 417.674408,258.148712 422.412628,253.407501 
	C428.002289,247.814270 433.591644,246.382202 439.267822,250.101166 
	C444.543640,253.557831 445.995697,259.738556 443.208832,266.503662 
	C442.462555,268.315155 441.147156,269.942383 441.185516,272.648590 
	C450.946777,271.503723 459.106262,267.992126 464.804932,259.765442 
	C466.509369,257.304901 468.003174,254.662521 469.952728,252.415070 
	C474.366882,247.326462 480.244568,246.388504 485.656921,249.611923 
	C490.753052,252.646973 492.650818,258.249725 490.816193,264.428680 
	C490.266449,266.280334 488.693207,267.814972 489.045685,270.288147 
	C492.801392,269.981232 496.139893,268.645111 499.471405,267.203583 
	C506.479889,264.171112 513.553894,266.554077 516.391418,272.837280 
	C519.252136,279.171783 516.598511,286.257416 509.579376,289.350677 
	C500.565430,293.323090 491.221008,296.309692 481.177887,296.357574 
	C477.063171,296.377167 473.111816,295.605316 469.742432,293.352692 
	C466.759094,291.358093 464.215851,291.371399 460.959076,292.720612 
	C451.965607,296.446472 442.373840,297.873444 432.777100,298.976501 
	C428.235992,299.498444 423.704132,298.462952 419.732788,296.260345 
	C416.619385,294.533569 414.132355,294.547058 410.969025,296.180573 
	C399.722443,301.988373 387.549072,304.877686 375.047974,306.021545 
	C366.220581,306.829315 357.608124,305.758087 351.519165,298.049988 
	C349.928192,296.035980 348.289429,296.909302 346.611053,297.537384 
	C326.430023,305.089722 305.735168,310.682739 284.410278,313.868347 
	C268.343201,316.268463 252.313950,317.582703 236.447052,312.471313 
	C231.169662,310.771240 226.157227,308.598938 221.681946,305.306488 
	C209.682693,296.478699 206.480743,283.944611 212.691208,270.439178 
	C216.807297,261.488251 223.302719,254.282166 230.131531,247.462570 
	C233.969269,243.630005 236.254288,239.457169 237.413742,234.242188 
	C240.298065,221.269211 243.489777,208.364594 246.564835,195.403976 
	C244.328415,194.399490 242.638199,195.341904 240.961365,195.826523 
	C229.924194,199.016388 218.856674,202.114059 207.896072,205.551224 
	C201.412003,207.584579 194.938263,209.617310 189.030350,213.315567 
	C183.194031,216.969025 175.531067,215.574463 171.603226,210.973282 
	C167.918289,206.656647 167.727158,200.347122 171.073181,195.698883 
	C173.035049,192.973511 175.964157,191.736176 178.881287,190.524567 
	C200.170517,181.682205 222.233475,175.380219 244.787613,170.779083 
	C248.918884,169.936279 252.495163,169.160172 255.322311,165.305511 
	C258.839630,160.509781 266.284821,159.913986 271.053345,163.970505 
	C274.612518,166.998260 278.170959,166.830826 282.206207,166.394333 
	C291.954865,165.339828 301.656982,163.917282 311.542450,165.590530 
	C328.450256,168.452393 334.825439,183.110672 324.846039,197.133743 
	C318.778076,205.660431 310.527191,212.021744 302.141479,218.042389 
	C289.287598,227.270996 276.172028,236.137283 263.097168,245.054153 
	C260.321472,246.947144 258.697479,249.176300 257.956543,252.564835 
	C255.540131,263.616089 253.014343,274.657410 250.017151,285.561401 
	C248.656662,290.510895 250.812164,291.510345 254.791565,291.664825 
	C265.791473,292.091858 276.779480,291.918579 287.721191,290.652985 
	C304.600281,288.700623 321.263275,286.071777 337.358704,280.018005 
	C349.901093,275.300629 358.906677,267.424103 364.790314,255.602539 
	C366.524994,252.117172 369.504944,250.078766 373.597595,248.899109 
M273.018738,209.415710 
	C281.825836,202.788803 291.141754,196.787216 299.240509,188.825867 
	C298.272339,188.246735 297.884247,187.849060 297.441772,187.774582 
	C289.950775,186.513901 282.547333,188.132111 275.109039,188.551056 
	C273.426208,188.645859 272.698151,190.086304 272.338745,191.670303 
	C270.768829,198.589539 269.165039,205.501099 267.377991,213.265167 
	C269.550964,211.794907 271.008301,210.808853 273.018738,209.415710 
z"/>
<path fill="#000000" opacity="1.000000" stroke="none" 
	d="
M503.941162,221.440552 
	C506.284515,229.024597 503.523041,235.543182 497.312134,237.834518 
	C490.738373,240.259720 484.240356,237.224945 481.475281,230.438263 
	C478.874084,224.053665 481.105194,217.456299 486.837616,214.581985 
	C493.319519,211.331863 499.823822,213.827515 503.941162,221.440552 
z"/>
</svg>